<mxfile host="app.diagrams.net" modified="2021-04-11T03:56:04.142Z" agent="5.0 (X11; Linux x86_64) AppleWebKit/537.36 (KHTML, like Gecko) Chrome/89.0.4389.114 Safari/537.36" etag="9y53oO_pygQd7m8rALmZ" version="14.5.10" type="github">
  <diagram id="pMr2-8Fk7_t-RmYYnqNG" name="SP1">
    <mxGraphModel dx="824" dy="494" grid="1" gridSize="10" guides="1" tooltips="1" connect="1" arrows="1" fold="1" page="1" pageScale="1" pageWidth="827" pageHeight="1169" math="0" shadow="0">
      <root>
        <mxCell id="LHjxUZURgRBe0jZGBRI_-0" />
        <mxCell id="LHjxUZURgRBe0jZGBRI_-1" parent="LHjxUZURgRBe0jZGBRI_-0" />
        <mxCell id="5WBtqXstfrGItNk_PKjU-9" value="" style="edgeStyle=entityRelationEdgeStyle;fontSize=12;html=1;endArrow=ERoneToMany;exitX=0.5;exitY=0;exitDx=0;exitDy=0;" parent="LHjxUZURgRBe0jZGBRI_-1" source="rzSMgFn_EuNxf4w6TY6o-18" target="rzSMgFn_EuNxf4w6TY6o-6" edge="1">
          <mxGeometry width="100" height="100" relative="1" as="geometry">
            <mxPoint x="90" y="350.07" as="sourcePoint" />
            <mxPoint x="258.0799999999999" y="299.998" as="targetPoint" />
          </mxGeometry>
        </mxCell>
        <mxCell id="rzSMgFn_EuNxf4w6TY6o-5" value="access" style="shape=table;startSize=30;container=1;collapsible=1;childLayout=tableLayout;fixedRows=1;rowLines=0;fontStyle=1;align=center;resizeLast=1;" vertex="1" parent="LHjxUZURgRBe0jZGBRI_-1">
          <mxGeometry x="330" y="280" width="180" height="130" as="geometry" />
        </mxCell>
        <mxCell id="rzSMgFn_EuNxf4w6TY6o-6" value="" style="shape=partialRectangle;collapsible=0;dropTarget=0;pointerEvents=0;fillColor=none;top=0;left=0;bottom=1;right=0;points=[[0,0.5],[1,0.5]];portConstraint=eastwest;" vertex="1" parent="rzSMgFn_EuNxf4w6TY6o-5">
          <mxGeometry y="30" width="180" height="30" as="geometry" />
        </mxCell>
        <mxCell id="rzSMgFn_EuNxf4w6TY6o-7" value="PK" style="shape=partialRectangle;connectable=0;fillColor=none;top=0;left=0;bottom=0;right=0;fontStyle=1;overflow=hidden;" vertex="1" parent="rzSMgFn_EuNxf4w6TY6o-6">
          <mxGeometry width="30" height="30" as="geometry" />
        </mxCell>
        <mxCell id="rzSMgFn_EuNxf4w6TY6o-8" value="id: int" style="shape=partialRectangle;connectable=0;fillColor=none;top=0;left=0;bottom=0;right=0;align=left;spacingLeft=6;fontStyle=5;overflow=hidden;" vertex="1" parent="rzSMgFn_EuNxf4w6TY6o-6">
          <mxGeometry x="30" width="150" height="30" as="geometry" />
        </mxCell>
        <mxCell id="rzSMgFn_EuNxf4w6TY6o-9" value="" style="shape=partialRectangle;collapsible=0;dropTarget=0;pointerEvents=0;fillColor=none;top=0;left=0;bottom=0;right=0;points=[[0,0.5],[1,0.5]];portConstraint=eastwest;" vertex="1" parent="rzSMgFn_EuNxf4w6TY6o-5">
          <mxGeometry y="60" width="180" height="30" as="geometry" />
        </mxCell>
        <mxCell id="rzSMgFn_EuNxf4w6TY6o-10" value="FK" style="shape=partialRectangle;connectable=0;fillColor=none;top=0;left=0;bottom=0;right=0;editable=1;overflow=hidden;" vertex="1" parent="rzSMgFn_EuNxf4w6TY6o-9">
          <mxGeometry width="30" height="30" as="geometry" />
        </mxCell>
        <mxCell id="rzSMgFn_EuNxf4w6TY6o-11" value="id_place" style="shape=partialRectangle;connectable=0;fillColor=none;top=0;left=0;bottom=0;right=0;align=left;spacingLeft=6;overflow=hidden;" vertex="1" parent="rzSMgFn_EuNxf4w6TY6o-9">
          <mxGeometry x="30" width="150" height="30" as="geometry" />
        </mxCell>
        <mxCell id="rzSMgFn_EuNxf4w6TY6o-12" value="" style="shape=partialRectangle;collapsible=0;dropTarget=0;pointerEvents=0;fillColor=none;top=0;left=0;bottom=0;right=0;points=[[0,0.5],[1,0.5]];portConstraint=eastwest;" vertex="1" parent="rzSMgFn_EuNxf4w6TY6o-5">
          <mxGeometry y="90" width="180" height="30" as="geometry" />
        </mxCell>
        <mxCell id="rzSMgFn_EuNxf4w6TY6o-13" value="FK" style="shape=partialRectangle;connectable=0;fillColor=none;top=0;left=0;bottom=0;right=0;editable=1;overflow=hidden;" vertex="1" parent="rzSMgFn_EuNxf4w6TY6o-12">
          <mxGeometry width="30" height="30" as="geometry" />
        </mxCell>
        <mxCell id="rzSMgFn_EuNxf4w6TY6o-14" value="id_user" style="shape=partialRectangle;connectable=0;fillColor=none;top=0;left=0;bottom=0;right=0;align=left;spacingLeft=6;overflow=hidden;" vertex="1" parent="rzSMgFn_EuNxf4w6TY6o-12">
          <mxGeometry x="30" width="150" height="30" as="geometry" />
        </mxCell>
        <mxCell id="rzSMgFn_EuNxf4w6TY6o-18" value="places" style="shape=table;startSize=30;container=1;collapsible=1;childLayout=tableLayout;fixedRows=1;rowLines=0;fontStyle=1;align=center;resizeLast=1;" vertex="1" parent="LHjxUZURgRBe0jZGBRI_-1">
          <mxGeometry x="110" y="430" width="180" height="100" as="geometry" />
        </mxCell>
        <mxCell id="rzSMgFn_EuNxf4w6TY6o-19" value="" style="shape=partialRectangle;collapsible=0;dropTarget=0;pointerEvents=0;fillColor=none;top=0;left=0;bottom=1;right=0;points=[[0,0.5],[1,0.5]];portConstraint=eastwest;" vertex="1" parent="rzSMgFn_EuNxf4w6TY6o-18">
          <mxGeometry y="30" width="180" height="30" as="geometry" />
        </mxCell>
        <mxCell id="rzSMgFn_EuNxf4w6TY6o-20" value="PK" style="shape=partialRectangle;connectable=0;fillColor=none;top=0;left=0;bottom=0;right=0;fontStyle=1;overflow=hidden;" vertex="1" parent="rzSMgFn_EuNxf4w6TY6o-19">
          <mxGeometry width="30" height="30" as="geometry" />
        </mxCell>
        <mxCell id="rzSMgFn_EuNxf4w6TY6o-21" value="id: int" style="shape=partialRectangle;connectable=0;fillColor=none;top=0;left=0;bottom=0;right=0;align=left;spacingLeft=6;fontStyle=5;overflow=hidden;" vertex="1" parent="rzSMgFn_EuNxf4w6TY6o-19">
          <mxGeometry x="30" width="150" height="30" as="geometry" />
        </mxCell>
        <mxCell id="rzSMgFn_EuNxf4w6TY6o-22" value="" style="shape=partialRectangle;collapsible=0;dropTarget=0;pointerEvents=0;fillColor=none;top=0;left=0;bottom=0;right=0;points=[[0,0.5],[1,0.5]];portConstraint=eastwest;" vertex="1" parent="rzSMgFn_EuNxf4w6TY6o-18">
          <mxGeometry y="60" width="180" height="30" as="geometry" />
        </mxCell>
        <mxCell id="rzSMgFn_EuNxf4w6TY6o-23" value="" style="shape=partialRectangle;connectable=0;fillColor=none;top=0;left=0;bottom=0;right=0;editable=1;overflow=hidden;" vertex="1" parent="rzSMgFn_EuNxf4w6TY6o-22">
          <mxGeometry width="30" height="30" as="geometry" />
        </mxCell>
        <mxCell id="rzSMgFn_EuNxf4w6TY6o-24" value="-access_capacity: int" style="shape=partialRectangle;connectable=0;fillColor=none;top=0;left=0;bottom=0;right=0;align=left;spacingLeft=6;overflow=hidden;" vertex="1" parent="rzSMgFn_EuNxf4w6TY6o-22">
          <mxGeometry x="30" width="150" height="30" as="geometry" />
        </mxCell>
        <mxCell id="rzSMgFn_EuNxf4w6TY6o-31" value="users" style="shape=table;startSize=30;container=1;collapsible=1;childLayout=tableLayout;fixedRows=1;rowLines=0;fontStyle=1;align=center;resizeLast=1;" vertex="1" parent="LHjxUZURgRBe0jZGBRI_-1">
          <mxGeometry x="560" y="430" width="180" height="160" as="geometry" />
        </mxCell>
        <mxCell id="rzSMgFn_EuNxf4w6TY6o-32" value="" style="shape=partialRectangle;collapsible=0;dropTarget=0;pointerEvents=0;fillColor=none;top=0;left=0;bottom=1;right=0;points=[[0,0.5],[1,0.5]];portConstraint=eastwest;" vertex="1" parent="rzSMgFn_EuNxf4w6TY6o-31">
          <mxGeometry y="30" width="180" height="30" as="geometry" />
        </mxCell>
        <mxCell id="rzSMgFn_EuNxf4w6TY6o-33" value="PK" style="shape=partialRectangle;connectable=0;fillColor=none;top=0;left=0;bottom=0;right=0;fontStyle=1;overflow=hidden;" vertex="1" parent="rzSMgFn_EuNxf4w6TY6o-32">
          <mxGeometry width="30" height="30" as="geometry" />
        </mxCell>
        <mxCell id="rzSMgFn_EuNxf4w6TY6o-34" value="id: bigint" style="shape=partialRectangle;connectable=0;fillColor=none;top=0;left=0;bottom=0;right=0;align=left;spacingLeft=6;fontStyle=5;overflow=hidden;" vertex="1" parent="rzSMgFn_EuNxf4w6TY6o-32">
          <mxGeometry x="30" width="150" height="30" as="geometry" />
        </mxCell>
        <mxCell id="rzSMgFn_EuNxf4w6TY6o-35" value="" style="shape=partialRectangle;collapsible=0;dropTarget=0;pointerEvents=0;fillColor=none;top=0;left=0;bottom=0;right=0;points=[[0,0.5],[1,0.5]];portConstraint=eastwest;" vertex="1" parent="rzSMgFn_EuNxf4w6TY6o-31">
          <mxGeometry y="60" width="180" height="30" as="geometry" />
        </mxCell>
        <mxCell id="rzSMgFn_EuNxf4w6TY6o-36" value="" style="shape=partialRectangle;connectable=0;fillColor=none;top=0;left=0;bottom=0;right=0;editable=1;overflow=hidden;" vertex="1" parent="rzSMgFn_EuNxf4w6TY6o-35">
          <mxGeometry width="30" height="30" as="geometry" />
        </mxCell>
        <mxCell id="rzSMgFn_EuNxf4w6TY6o-37" value="name: character(45)" style="shape=partialRectangle;connectable=0;fillColor=none;top=0;left=0;bottom=0;right=0;align=left;spacingLeft=6;overflow=hidden;" vertex="1" parent="rzSMgFn_EuNxf4w6TY6o-35">
          <mxGeometry x="30" width="150" height="30" as="geometry" />
        </mxCell>
        <mxCell id="rzSMgFn_EuNxf4w6TY6o-38" value="" style="shape=partialRectangle;collapsible=0;dropTarget=0;pointerEvents=0;fillColor=none;top=0;left=0;bottom=0;right=0;points=[[0,0.5],[1,0.5]];portConstraint=eastwest;" vertex="1" parent="rzSMgFn_EuNxf4w6TY6o-31">
          <mxGeometry y="90" width="180" height="30" as="geometry" />
        </mxCell>
        <mxCell id="rzSMgFn_EuNxf4w6TY6o-39" value="" style="shape=partialRectangle;connectable=0;fillColor=none;top=0;left=0;bottom=0;right=0;editable=1;overflow=hidden;" vertex="1" parent="rzSMgFn_EuNxf4w6TY6o-38">
          <mxGeometry width="30" height="30" as="geometry" />
        </mxCell>
        <mxCell id="rzSMgFn_EuNxf4w6TY6o-40" value="role: character(45)" style="shape=partialRectangle;connectable=0;fillColor=none;top=0;left=0;bottom=0;right=0;align=left;spacingLeft=6;overflow=hidden;" vertex="1" parent="rzSMgFn_EuNxf4w6TY6o-38">
          <mxGeometry x="30" width="150" height="30" as="geometry" />
        </mxCell>
        <mxCell id="rzSMgFn_EuNxf4w6TY6o-41" value="" style="shape=partialRectangle;collapsible=0;dropTarget=0;pointerEvents=0;fillColor=none;top=0;left=0;bottom=0;right=0;points=[[0,0.5],[1,0.5]];portConstraint=eastwest;" vertex="1" parent="rzSMgFn_EuNxf4w6TY6o-31">
          <mxGeometry y="120" width="180" height="30" as="geometry" />
        </mxCell>
        <mxCell id="rzSMgFn_EuNxf4w6TY6o-42" value="" style="shape=partialRectangle;connectable=0;fillColor=none;top=0;left=0;bottom=0;right=0;editable=1;overflow=hidden;" vertex="1" parent="rzSMgFn_EuNxf4w6TY6o-41">
          <mxGeometry width="30" height="30" as="geometry" />
        </mxCell>
        <mxCell id="rzSMgFn_EuNxf4w6TY6o-43" value="password: character(45)" style="shape=partialRectangle;connectable=0;fillColor=none;top=0;left=0;bottom=0;right=0;align=left;spacingLeft=6;overflow=hidden;" vertex="1" parent="rzSMgFn_EuNxf4w6TY6o-41">
          <mxGeometry x="30" width="150" height="30" as="geometry" />
        </mxCell>
        <mxCell id="rzSMgFn_EuNxf4w6TY6o-44" value="" style="edgeStyle=entityRelationEdgeStyle;fontSize=12;html=1;endArrow=ERoneToMany;entryX=1;entryY=0.5;entryDx=0;entryDy=0;exitX=0.5;exitY=0;exitDx=0;exitDy=0;" edge="1" parent="LHjxUZURgRBe0jZGBRI_-1" source="rzSMgFn_EuNxf4w6TY6o-31" target="rzSMgFn_EuNxf4w6TY6o-6">
          <mxGeometry width="100" height="100" relative="1" as="geometry">
            <mxPoint x="240" y="545" as="sourcePoint" />
            <mxPoint x="340" y="335" as="targetPoint" />
          </mxGeometry>
        </mxCell>
      </root>
    </mxGraphModel>
  </diagram>
</mxfile>
